<svg width="30" height="30" viewBox="0 0 30 30" fill="none" xmlns="http://www.w3.org/2000/svg">
<path d="M18.5937 3.625L29.125 14.125C29.25 14.25 29.3387 14.3854 29.3912 14.5312C29.4437 14.6771 29.4696 14.8333 29.4687 15C29.4687 15.1667 29.4425 15.3229 29.39 15.4687C29.3375 15.6146 29.2491 15.75 29.125 15.875L18.5937 26.4063C18.3021 26.6979 17.9375 26.8438 17.5 26.8438C17.0625 26.8438 16.6875 26.6875 16.375 26.375C16.0625 26.0625 15.9062 25.6979 15.9062 25.2812C15.9062 24.8646 16.0625 24.5 16.375 24.1875L25.5625 15L16.375 5.8125C16.0833 5.52083 15.9375 5.16125 15.9375 4.73375C15.9375 4.30625 16.0937 3.93667 16.4062 3.625C16.7187 3.3125 17.0833 3.15625 17.5 3.15625C17.9166 3.15625 18.2812 3.3125 18.5937 3.625Z" fill="black"/>
</svg>
