<svg width="17" height="17" viewBox="0 0 17 17" fill="none" xmlns="http://www.w3.org/2000/svg">
<rect width="17" height="17" transform="matrix(-1 0 0 -1 17 17)" fill="white"/>
<path d="M10.5365 2.05414L16.5042 8.00414C16.575 8.07497 16.6253 8.1517 16.655 8.23434C16.6848 8.31698 16.6994 8.40552 16.699 8.49997C16.699 8.59441 16.6841 8.68295 16.6543 8.76559C16.6246 8.84823 16.5745 8.92497 16.5042 8.9958L10.5365 14.9635C10.3712 15.1288 10.1646 15.2114 9.91667 15.2114C9.66876 15.2114 9.45626 15.1229 9.27917 14.9458C9.10209 14.7687 9.01355 14.5621 9.01355 14.326C9.01355 14.0899 9.10209 13.8833 9.27917 13.7062L14.4854 8.49997L9.27917 3.29372C9.1139 3.12844 9.03126 2.92468 9.03126 2.68243C9.03126 2.44018 9.1198 2.23075 9.29688 2.05414C9.47396 1.87705 9.68056 1.78851 9.91667 1.78851C10.1528 1.78851 10.3594 1.87705 10.5365 2.05414Z" fill="black"/>
</svg>
