<svg width="17" height="17" viewBox="0 0 17 17" fill="none" xmlns="http://www.w3.org/2000/svg">
<rect width="17" height="17" fill="white"/>
<path d="M6.46354 14.9459L0.495828 8.99587C0.424995 8.92503 0.374703 8.8483 0.344953 8.76566C0.315203 8.68302 0.300564 8.59448 0.301036 8.50003C0.301036 8.40559 0.315911 8.31705 0.345661 8.23441C0.375411 8.15177 0.425467 8.07503 0.495828 8.0042L6.46354 2.03649C6.62881 1.87121 6.83541 1.78857 7.08333 1.78857C7.33124 1.78857 7.54374 1.87712 7.72083 2.0542C7.89791 2.23128 7.98645 2.43788 7.98645 2.67399C7.98645 2.9101 7.89791 3.1167 7.72083 3.29378L2.51458 8.50003L7.72083 13.7063C7.88611 13.8716 7.96874 14.0753 7.96874 14.3176C7.96874 14.5598 7.8802 14.7693 7.70312 14.9459C7.52604 15.1229 7.31944 15.2115 7.08333 15.2115C6.84722 15.2115 6.64062 15.1229 6.46354 14.9459Z" fill="black"/>
</svg>
