<svg width="38" height="32" viewBox="0 0 38 32" fill="none" xmlns="http://www.w3.org/2000/svg">
<path d="M17.5938 7H20.4062C20.8738 7 21.25 7.37617 21.25 7.84375V13.75H24.3332C24.959 13.75 25.2719 14.5059 24.8289 14.9488L19.4816 20.2996C19.218 20.5633 18.7855 20.5633 18.5219 20.2996L13.1676 14.9488C12.7246 14.5059 13.0375 13.75 13.6633 13.75H16.75V7.84375C16.75 7.37617 17.1262 7 17.5938 7ZM28 20.2188V24.1562C28 24.6238 27.6238 25 27.1562 25H10.8438C10.3762 25 10 24.6238 10 24.1562V20.2188C10 19.7512 10.3762 19.375 10.8438 19.375H16.0012L17.7238 21.0977C18.4305 21.8043 19.5695 21.8043 20.2762 21.0977L21.9988 19.375H27.1562C27.6238 19.375 28 19.7512 28 20.2188ZM23.6406 23.3125C23.6406 22.9258 23.3242 22.6094 22.9375 22.6094C22.5508 22.6094 22.2344 22.9258 22.2344 23.3125C22.2344 23.6992 22.5508 24.0156 22.9375 24.0156C23.3242 24.0156 23.6406 23.6992 23.6406 23.3125ZM25.8906 23.3125C25.8906 22.9258 25.5742 22.6094 25.1875 22.6094C24.8008 22.6094 24.4844 22.9258 24.4844 23.3125C24.4844 23.6992 24.8008 24.0156 25.1875 24.0156C25.5742 24.0156 25.8906 23.6992 25.8906 23.3125Z" fill="white"/>
<rect x="0.5" y="0.5" width="37" height="31" rx="3.5" stroke="white"/>
</svg>
