<svg width="38" height="32" viewBox="0 0 38 32" fill="none" xmlns="http://www.w3.org/2000/svg">
<rect x="0.5" y="0.5" width="37" height="31" rx="3.5" stroke="#280034"/>
<path d="M17.5938 6H20.4062C20.8738 6 21.25 6.37617 21.25 6.84375V12.75H24.3332C24.959 12.75 25.2719 13.5059 24.8289 13.9488L19.4816 19.2996C19.218 19.5633 18.7855 19.5633 18.5219 19.2996L13.1676 13.9488C12.7246 13.5059 13.0375 12.75 13.6633 12.75H16.75V6.84375C16.75 6.37617 17.1262 6 17.5938 6ZM28 19.2188V23.1562C28 23.6238 27.6238 24 27.1562 24H10.8438C10.3762 24 10 23.6238 10 23.1562V19.2188C10 18.7512 10.3762 18.375 10.8438 18.375H16.0012L17.7238 20.0977C18.4305 20.8043 19.5695 20.8043 20.2762 20.0977L21.9988 18.375H27.1562C27.6238 18.375 28 18.7512 28 19.2188ZM23.6406 22.3125C23.6406 21.9258 23.3242 21.6094 22.9375 21.6094C22.5508 21.6094 22.2344 21.9258 22.2344 22.3125C22.2344 22.6992 22.5508 23.0156 22.9375 23.0156C23.3242 23.0156 23.6406 22.6992 23.6406 22.3125ZM25.8906 22.3125C25.8906 21.9258 25.5742 21.6094 25.1875 21.6094C24.8008 21.6094 24.4844 21.9258 24.4844 22.3125C24.4844 22.6992 24.8008 23.0156 25.1875 23.0156C25.5742 23.0156 25.8906 22.6992 25.8906 22.3125Z" fill="#280034"/>
</svg>
