<svg width="38" height="32" viewBox="0 0 38 32" fill="none" xmlns="http://www.w3.org/2000/svg">
<path d="M12.11 18.6L11.16 22.7C11.1272 22.8498 11.1284 23.0051 11.1633 23.1545C11.1982 23.3039 11.2661 23.4436 11.3619 23.5634C11.4578 23.6832 11.5792 23.7801 11.7172 23.847C11.8553 23.9138 12.0066 23.949 12.16 23.95C12.2315 23.9572 12.3035 23.9572 12.375 23.95L16.5 23L24.42 15.11L20 10.7L12.11 18.6Z" fill="white"/>
<path d="M26.91 11.16L23.96 8.20999C23.766 8.01702 23.5036 7.90869 23.23 7.90869C22.9564 7.90869 22.6939 8.01702 22.5 8.20999L20.86 9.84998L25.275 14.265L26.915 12.625C27.011 12.5285 27.087 12.4141 27.1387 12.2882C27.1904 12.1623 27.2167 12.0275 27.2163 11.8914C27.2158 11.7554 27.1885 11.6207 27.136 11.4952C27.0834 11.3697 27.0066 11.2558 26.91 11.16Z" fill="white"/>
<rect x="0.5" y="0.5" width="37" height="31" rx="3.5" stroke="white"/>
</svg>
