<svg width="38" height="32" viewBox="0 0 38 32" fill="none" xmlns="http://www.w3.org/2000/svg">
<rect x="0.5" y="0.5" width="37" height="31" rx="3.5" stroke="#280034"/>
<path d="M12.11 17.6L11.16 21.7C11.1272 21.8498 11.1284 22.0051 11.1633 22.1545C11.1982 22.3039 11.2661 22.4436 11.3619 22.5634C11.4578 22.6832 11.5792 22.7801 11.7172 22.847C11.8553 22.9138 12.0066 22.949 12.16 22.95C12.2315 22.9572 12.3035 22.9572 12.375 22.95L16.5 22L24.42 14.11L20 9.69995L12.11 17.6Z" fill="#280034"/>
<path d="M26.91 10.16L23.96 7.20999C23.766 7.01702 23.5036 6.90869 23.23 6.90869C22.9564 6.90869 22.6939 7.01702 22.5 7.20999L20.86 8.84998L25.275 13.265L26.915 11.625C27.011 11.5285 27.087 11.4141 27.1387 11.2882C27.1904 11.1623 27.2167 11.0275 27.2163 10.8914C27.2158 10.7554 27.1885 10.6207 27.136 10.4952C27.0834 10.3697 27.0066 10.2558 26.91 10.16Z" fill="#280034"/>
</svg>
