<svg width="905" height="905" viewBox="0 0 905 905" fill="none" xmlns="http://www.w3.org/2000/svg">
<path d="M403.516 20.2896C434.88 7.29842 470.12 7.29839 501.483 20.2896L723.482 112.245C754.846 125.236 779.764 150.154 792.755 181.518L884.71 403.516C897.702 434.88 897.702 470.12 884.71 501.483L792.755 723.482C779.764 754.846 754.846 779.764 723.482 792.755L501.484 884.71C470.12 897.702 434.88 897.702 403.517 884.71L181.518 792.755C150.154 779.764 125.236 754.846 112.245 723.482L20.2896 501.484C7.29842 470.12 7.29839 434.88 20.2896 403.517L112.245 181.518C125.236 150.154 150.154 125.236 181.518 112.245L403.516 20.2896Z" fill="url(#paint0_linear_302_1638)"/>
<path d="M264.265 649.45C263.755 649.45 263.35 649.3 263.05 649C262.75 648.67 262.6 648.22 262.6 647.65V622.9C262.6 621.22 263.095 619.9 264.085 618.94C265.105 617.98 266.515 617.5 268.315 617.5H282.265C283.435 617.5 284.02 617.98 284.02 618.94C284.02 619.36 283.87 619.69 283.57 619.93C283.27 620.17 282.835 620.29 282.265 620.29H268.36C267.64 620.29 267.055 620.53 266.605 621.01C266.185 621.49 265.975 622.12 265.975 622.9V631.945H278.845C280.015 631.945 280.6 632.425 280.6 633.385C280.6 633.835 280.435 634.18 280.105 634.42C279.805 634.66 279.385 634.78 278.845 634.78H265.975V647.65C265.975 648.22 265.825 648.67 265.525 649C265.225 649.3 264.805 649.45 264.265 649.45ZM311.665 649.45C308.995 649.45 306.67 648.925 304.69 647.875C302.74 646.825 301.24 645.31 300.19 643.33C299.14 641.35 298.615 638.995 298.615 636.265V618.85C298.615 618.28 298.765 617.845 299.065 617.545C299.365 617.215 299.77 617.05 300.28 617.05C300.82 617.05 301.24 617.215 301.54 617.545C301.84 617.845 301.99 618.28 301.99 618.85V636.4C301.99 639.64 302.845 642.145 304.555 643.915C306.265 645.685 308.665 646.57 311.755 646.57C314.875 646.57 317.305 645.685 319.045 643.915C320.815 642.115 321.7 639.61 321.7 636.4V618.85C321.7 618.28 321.85 617.845 322.15 617.545C322.48 617.215 322.9 617.05 323.41 617.05C323.95 617.05 324.355 617.215 324.625 617.545C324.925 617.845 325.075 618.28 325.075 618.85V636.265C325.075 638.905 324.535 641.23 323.455 643.24C322.375 645.22 320.815 646.75 318.775 647.83C316.765 648.91 314.395 649.45 311.665 649.45ZM352.943 649.45C352.403 649.45 351.983 649.3 351.683 649C351.413 648.67 351.278 648.22 351.278 647.65V620.29H340.973C340.433 620.29 339.998 620.185 339.668 619.975C339.368 619.735 339.218 619.39 339.218 618.94C339.218 617.98 339.803 617.5 340.973 617.5H365.003C366.173 617.5 366.758 617.98 366.758 618.94C366.758 619.36 366.608 619.69 366.308 619.93C366.008 620.17 365.573 620.29 365.003 620.29H354.698V647.65C354.698 648.22 354.533 648.67 354.203 649C353.903 649.3 353.483 649.45 352.943 649.45ZM393.858 649.45C391.188 649.45 388.863 648.925 386.883 647.875C384.933 646.825 383.433 645.31 382.383 643.33C381.333 641.35 380.808 638.995 380.808 636.265V618.85C380.808 618.28 380.958 617.845 381.258 617.545C381.558 617.215 381.963 617.05 382.473 617.05C383.013 617.05 383.433 617.215 383.733 617.545C384.033 617.845 384.183 618.28 384.183 618.85V636.4C384.183 639.64 385.038 642.145 386.748 643.915C388.458 645.685 390.858 646.57 393.948 646.57C397.068 646.57 399.498 645.685 401.238 643.915C403.008 642.115 403.893 639.61 403.893 636.4V618.85C403.893 618.28 404.043 617.845 404.343 617.545C404.673 617.215 405.093 617.05 405.603 617.05C406.143 617.05 406.548 617.215 406.818 617.545C407.118 617.845 407.268 618.28 407.268 618.85V636.265C407.268 638.905 406.728 641.23 405.648 643.24C404.568 645.22 403.008 646.75 400.968 647.83C398.958 648.91 396.588 649.45 393.858 649.45ZM422.852 623.125C422.852 621.415 423.347 620.05 424.337 619.03C425.357 618.01 426.827 617.5 428.747 617.5H437.162C445.322 617.5 449.402 620.89 449.402 627.67C449.402 630.94 448.412 633.415 446.432 635.095C444.452 636.775 441.467 637.615 437.477 637.615L446.207 646.66C446.477 646.93 446.612 647.275 446.612 647.695C446.612 648.235 446.387 648.67 445.937 649C445.577 649.27 445.202 649.405 444.812 649.405C444.212 649.405 443.642 649.105 443.102 648.505L432.752 637.615H426.677V647.515C426.677 648.115 426.497 648.595 426.137 648.955C425.807 649.285 425.342 649.45 424.742 649.45C424.142 649.45 423.677 649.285 423.347 648.955C423.017 648.595 422.852 648.115 422.852 647.515V623.125ZM437.387 634.51C440.147 634.51 442.187 634 443.507 632.98C444.857 631.93 445.532 630.16 445.532 627.67C445.532 625.15 444.857 623.35 443.507 622.27C442.157 621.16 440.117 620.605 437.387 620.605H428.972C428.282 620.605 427.727 620.83 427.307 621.28C426.887 621.73 426.677 622.345 426.677 623.125V634.51H437.387ZM469.868 649C468.038 649 466.613 648.52 465.593 647.56C464.573 646.6 464.063 645.25 464.063 643.51V622.9C464.063 621.22 464.558 619.9 465.548 618.94C466.568 617.98 467.978 617.5 469.778 617.5H483.728C484.898 617.5 485.483 617.98 485.483 618.94C485.483 619.36 485.333 619.69 485.033 619.93C484.733 620.17 484.298 620.29 483.728 620.29H469.823C469.103 620.29 468.518 620.53 468.068 621.01C467.648 621.49 467.438 622.12 467.438 622.9V631.495H480.308C481.478 631.495 482.063 631.975 482.063 632.935C482.063 633.385 481.898 633.73 481.568 633.97C481.268 634.21 480.848 634.33 480.308 634.33H467.438V643.6C467.438 644.38 467.648 645.01 468.068 645.49C468.518 645.97 469.103 646.21 469.823 646.21H484.718C485.888 646.21 486.473 646.675 486.473 647.605C486.473 648.055 486.308 648.4 485.978 648.64C485.678 648.88 485.258 649 484.718 649H469.868ZM523.525 649.45C523.015 649.45 522.61 649.3 522.31 649C522.01 648.67 521.86 648.22 521.86 647.65V629.29C521.86 626.8 522.385 624.64 523.435 622.81C524.515 620.95 526.045 619.525 528.025 618.535C530.005 617.545 532.33 617.05 535 617.05C537.67 617.05 539.98 617.545 541.93 618.535C543.91 619.525 545.425 620.95 546.475 622.81C547.555 624.64 548.095 626.8 548.095 629.29V647.65C548.095 648.22 547.945 648.67 547.645 649C547.375 649.3 546.97 649.45 546.43 649.45C545.92 649.45 545.5 649.3 545.17 649C544.87 648.67 544.72 648.22 544.72 647.65V629.155C544.72 626.245 543.865 623.98 542.155 622.36C540.445 620.74 538.06 619.93 535 619.93C532 619.93 529.615 620.755 527.845 622.405C526.105 624.055 525.235 626.305 525.235 629.155V647.65C525.235 648.22 525.085 648.67 524.785 649C524.485 649.3 524.065 649.45 523.525 649.45ZM577.528 649.45C574.498 649.45 571.768 648.79 569.338 647.47C566.908 646.12 564.988 644.215 563.578 641.755C562.198 639.295 561.508 636.46 561.508 633.25C561.508 630.01 562.198 627.175 563.578 624.745C564.988 622.285 566.908 620.395 569.338 619.075C571.768 617.725 574.498 617.05 577.528 617.05C580.558 617.05 583.288 617.725 585.718 619.075C588.148 620.395 590.053 622.285 591.433 624.745C592.843 627.175 593.548 630.01 593.548 633.25C593.548 636.46 592.843 639.295 591.433 641.755C590.053 644.215 588.148 646.12 585.718 647.47C583.288 648.79 580.558 649.45 577.528 649.45ZM577.528 646.57C579.958 646.57 582.118 646.045 584.008 644.995C585.928 643.945 587.428 642.43 588.508 640.45C589.618 638.44 590.173 636.04 590.173 633.25C590.173 630.43 589.603 628.015 588.463 626.005C587.353 623.995 585.823 622.48 583.873 621.46C581.953 620.44 579.808 619.93 577.438 619.93C575.038 619.93 572.878 620.455 570.958 621.505C569.068 622.555 567.583 624.085 566.503 626.095C565.423 628.105 564.883 630.49 564.883 633.25C564.883 636.04 565.423 638.44 566.503 640.45C567.613 642.43 569.113 643.945 571.003 644.995C572.923 646.045 575.098 646.57 577.528 646.57ZM615.819 649.45C614.529 649.45 613.494 649.03 612.714 648.19C611.934 647.35 611.379 646.045 611.049 644.275L606.144 619.03C606.084 618.73 606.054 618.52 606.054 618.4C606.054 617.5 606.564 617.05 607.584 617.05C608.214 617.05 608.664 617.185 608.934 617.455C609.204 617.725 609.384 618.13 609.474 618.67L614.244 644.365C614.394 645.205 614.589 645.79 614.829 646.12C615.069 646.42 615.414 646.57 615.864 646.57C616.344 646.57 616.704 646.405 616.944 646.075C617.184 645.715 617.364 645.16 617.484 644.41L621.039 621.235C621.249 619.855 621.684 618.82 622.344 618.13C623.034 617.41 623.904 617.05 624.954 617.05C627.114 617.05 628.404 618.445 628.824 621.235L632.379 644.41C632.499 645.19 632.679 645.745 632.919 646.075C633.159 646.405 633.519 646.57 633.999 646.57C634.419 646.57 634.749 646.405 634.989 646.075C635.259 645.745 635.469 645.175 635.619 644.365L640.389 618.67C640.479 618.1 640.659 617.695 640.929 617.455C641.229 617.185 641.679 617.05 642.279 617.05C643.299 617.05 643.809 617.5 643.809 618.4C643.809 618.52 643.779 618.73 643.719 619.03L638.814 644.275C638.484 645.955 637.944 647.245 637.194 648.145C636.474 649.015 635.424 649.45 634.044 649.45C632.754 649.45 631.734 649.03 630.984 648.19C630.264 647.35 629.769 646.06 629.499 644.32L625.989 621.595C625.899 620.995 625.764 620.575 625.584 620.335C625.434 620.065 625.224 619.93 624.954 619.93C624.654 619.93 624.414 620.065 624.234 620.335C624.084 620.575 623.964 620.995 623.874 621.595L620.364 644.32C620.094 646.06 619.584 647.35 618.834 648.19C618.114 649.03 617.109 649.45 615.819 649.45Z" fill="white"/>
<path d="M419.683 525.49C413.624 525.49 408.806 523.156 405.23 518.487C401.654 513.719 398.277 506.07 395.098 495.541L373.791 424.915C373.493 423.822 373.344 422.928 373.344 422.233C373.344 419.551 375.082 418.21 378.559 418.21C380.347 418.21 381.688 418.607 382.582 419.402C383.476 420.097 384.221 421.488 384.817 423.574L405.975 494.498C408.359 502.445 410.544 508.057 412.531 511.335C414.617 514.514 417.001 516.103 419.683 516.103C422.266 516.103 424.6 514.464 426.686 511.186C428.772 507.908 431.007 502.345 433.391 494.498L454.549 423.425C455.145 421.438 455.89 420.097 456.784 419.402C457.678 418.607 459.019 418.21 460.807 418.21C464.284 418.21 466.022 419.551 466.022 422.233C466.022 422.928 465.873 423.822 465.575 424.915L444.119 495.541C440.742 506.567 437.215 514.315 433.54 518.785C429.964 523.255 425.345 525.49 419.683 525.49ZM516.236 525.49C514.547 525.49 513.206 524.993 512.213 524C511.22 522.907 510.723 521.417 510.723 519.53V452.182C510.723 441.653 513.703 433.358 519.663 427.299C525.623 421.24 533.818 418.21 544.248 418.21C550.307 418.21 555.87 419.799 560.936 422.978C566.101 426.057 569.975 430.18 572.558 435.345C575.141 430.08 578.915 425.908 583.882 422.829C588.948 419.75 594.61 418.21 600.868 418.21C611.298 418.21 619.493 421.24 625.453 427.299C631.413 433.259 634.393 441.553 634.393 452.182V519.53C634.393 521.417 633.847 522.907 632.754 524C631.761 524.993 630.42 525.49 628.731 525.49C626.943 525.49 625.552 524.993 624.559 524C623.665 522.907 623.218 521.417 623.218 519.53V452.182C623.218 444.335 621.43 438.325 617.854 434.153C614.377 429.981 608.616 427.895 600.57 427.895C593.517 427.895 588.004 430.08 584.031 434.451C580.058 438.722 578.071 444.633 578.071 452.182V519.53C578.071 521.417 577.574 522.907 576.581 524C575.588 524.993 574.247 525.49 572.558 525.49C570.869 525.49 569.528 524.993 568.535 524C567.641 522.907 567.194 521.417 567.194 519.53V452.182C567.194 444.831 565.108 438.971 560.936 434.6C556.764 430.13 551.301 427.895 544.546 427.895C536.5 427.895 530.689 429.981 527.113 434.153C523.636 438.325 521.898 444.335 521.898 452.182V519.53C521.898 521.417 521.401 522.907 520.408 524C519.415 524.993 518.024 525.49 516.236 525.49ZM696.745 525.49C695.056 525.49 693.715 524.993 692.722 524C691.729 522.907 691.232 521.417 691.232 519.53V424.17C691.232 422.283 691.729 420.842 692.722 419.849C693.715 418.756 695.056 418.21 696.745 418.21C698.533 418.21 699.924 418.756 700.917 419.849C701.91 420.942 702.407 422.382 702.407 424.17V519.53C702.407 521.318 701.91 522.758 700.917 523.851C699.924 524.944 698.533 525.49 696.745 525.49Z" fill="white" fill-opacity="0.88"/>
<path d="M336.55 512.946L336.421 514.942L336.551 512.946C338.317 513.061 339.813 511.66 339.813 509.891V502.752V495.618C339.813 493.614 338.269 491.948 336.27 491.795C309.916 489.827 288.248 480.143 270.255 462.27L270.255 462.27C250.774 442.909 240.188 417.551 240.188 390.117C240.188 351.147 261.833 316.173 296.909 298.665L296.911 298.664C309.152 292.574 326.098 288.199 338.004 288.199C339.003 288.199 339.813 287.389 339.813 286.39V277.6V268.927C339.813 267.887 338.964 267.048 337.925 267.058C335.766 267.116 331.855 267.402 329.169 267.636C287.326 272.022 250.071 298.257 231.385 336.495L231.384 336.496C208.383 383.478 218.001 439.695 255.379 477.016C277.349 498.928 304.254 510.866 336.55 512.946Z" stroke="url(#paint1_linear_302_1638)" stroke-width="4"/>
<path d="M335.249 315.457C305.713 318.036 280.455 338.019 270.962 366.266C266.039 380.975 265.922 397.794 270.669 412.855C275.24 427.33 285.026 440.985 297.333 450.185C308.409 458.448 323.118 463.84 336.656 464.66V464.66C339.448 464.851 341.82 462.642 341.829 459.843L341.93 427.565L342.003 411.912C342.06 399.842 351.83 390.072 363.9 390.015L379.553 389.942L411.831 389.841C414.63 389.832 416.839 387.46 416.649 384.667V384.667C414.832 355.19 394.555 328.819 366.074 319.032C357.343 316.043 344.977 314.578 335.249 315.457Z" fill="url(#paint2_linear_302_1638)"/>
<path d="M204.692 455.03C199.226 443.562 194.955 430.449 192.521 417.688C191.675 413.336 190.848 405.313 190.029 394.49C189.911 392.985 188.655 391.824 187.146 391.824H179.365H175.915C172.186 391.824 169.205 394.924 169.35 398.65C172.015 460.325 208.915 516.873 264.706 544.74L264.707 544.74C286.491 555.632 309.309 561.598 334 562.815L333.901 564.813L334.005 562.816C337.163 562.979 339.813 560.463 339.813 557.301V552.565V544.126C339.813 542.868 338.793 541.848 337.535 541.848C326.998 541.848 311.397 539.409 299.236 535.85C258.009 523.909 223.277 494.157 204.692 455.03ZM204.692 455.03C204.693 455.03 204.693 455.031 204.693 455.031L206.498 454.171L204.692 455.029C204.692 455.029 204.692 455.029 204.692 455.03Z" stroke="url(#paint3_linear_302_1638)" stroke-width="4"/>
<defs>
<linearGradient id="paint0_linear_302_1638" x1="250" y1="59.5" x2="676.5" y2="841" gradientUnits="userSpaceOnUse">
<stop stop-color="#1055DC"/>
<stop offset="0.305208" stop-color="#274695" stop-opacity="0.91"/>
<stop offset="0.669792" stop-color="#1189AF" stop-opacity="0.91"/>
<stop offset="0.83125" stop-color="#1AE6E6" stop-opacity="0.79"/>
<stop offset="1" stop-color="#1AE6E6" stop-opacity="0.61"/>
</linearGradient>
<linearGradient id="paint1_linear_302_1638" x1="279.405" y1="515.293" x2="279.405" y2="265" gradientUnits="userSpaceOnUse">
<stop stop-color="white"/>
<stop offset="1" stop-color="white" stop-opacity="0.32"/>
</linearGradient>
<linearGradient id="paint2_linear_302_1638" x1="342.094" y1="465.012" x2="342.094" y2="315.204" gradientUnits="userSpaceOnUse">
<stop stop-color="white"/>
<stop offset="1" stop-color="white" stop-opacity="0.09"/>
</linearGradient>
<linearGradient id="paint3_linear_302_1638" x1="254.406" y1="565.223" x2="254.406" y2="389.824" gradientUnits="userSpaceOnUse">
<stop stop-color="white"/>
<stop offset="1" stop-color="white" stop-opacity="0.48"/>
</linearGradient>
</defs>
</svg>
