<svg width="106" height="105" viewBox="0 0 106 105" fill="none" xmlns="http://www.w3.org/2000/svg">
<path d="M88 13.125H18C13.1875 13.125 9.25 17.0625 9.25 21.875V74.375C9.25 76.6956 10.1719 78.9212 11.8128 80.5622C13.4538 82.2031 15.6794 83.125 18 83.125H35.5V87.5C35.5 89.9062 37.4688 91.875 39.875 91.875H66.125C68.5312 91.875 70.5 89.9062 70.5 87.5V83.125H88C92.8125 83.125 96.75 79.1875 96.75 74.375V21.875C96.75 19.5544 95.8281 17.3288 94.1872 15.6878C92.5462 14.0469 90.3206 13.125 88 13.125ZM88 74.375H18V21.875H88V74.375Z" fill="#280034"/>
<path d="M28.9375 32.8125H36.5938C38.3875 32.8125 39.875 31.325 39.875 29.5312C39.875 27.7375 38.3875 26.25 36.5938 26.25H26.75C24.3437 26.25 22.375 28.2187 22.375 30.625V40.4688C22.375 42.2625 23.8625 43.75 25.6562 43.75C27.45 43.75 28.9375 42.2625 28.9375 40.4688V32.8125ZM80.3438 52.5C78.55 52.5 77.0625 53.9875 77.0625 55.7812V63.4375H69.4062C67.6125 63.4375 66.125 64.925 66.125 66.7188C66.125 68.5125 67.6125 70 69.4062 70H79.25C81.6563 70 83.625 68.0313 83.625 65.625V55.7812C83.625 53.9875 82.1375 52.5 80.3438 52.5Z" fill="#280034"/>
</svg>
