<svg width="130" height="130" viewBox="0 0 130 130" fill="none" xmlns="http://www.w3.org/2000/svg">
<path d="M55.25 55.25C55.25 56.9739 54.5652 58.6272 53.3462 59.8462C52.1272 61.0652 50.4739 61.75 48.75 61.75C47.0261 61.75 45.3728 61.0652 44.1538 59.8462C42.9348 58.6272 42.25 56.9739 42.25 55.25C42.25 53.5261 42.9348 51.8728 44.1538 50.6538C45.3728 49.4348 47.0261 48.75 48.75 48.75C50.4739 48.75 52.1272 49.4348 53.3462 50.6538C54.5652 51.8728 55.25 53.5261 55.25 55.25ZM81.25 61.75C82.9739 61.75 84.6272 61.0652 85.8462 59.8462C87.0652 58.6272 87.75 56.9739 87.75 55.25C87.75 53.5261 87.0652 51.8728 85.8462 50.6538C84.6272 49.4348 82.9739 48.75 81.25 48.75C79.5261 48.75 77.8728 49.4348 76.6538 50.6538C75.4348 51.8728 74.75 53.5261 74.75 55.25C74.75 56.9739 75.4348 58.6272 76.6538 59.8462C77.8728 61.0652 79.5261 61.75 81.25 61.75ZM83.2195 78C74.9385 78 66.8395 80.4505 59.9495 85.046C59.2598 85.535 58.7879 86.2735 58.6338 87.1048C58.4797 87.9361 58.6556 88.7947 59.1242 89.4985C59.5927 90.2022 60.3171 90.6956 61.1435 90.874C61.9699 91.0524 62.8333 90.9017 63.5505 90.454C69.3752 86.5709 76.2191 84.4992 83.2195 84.5H88.4C89.262 84.5 90.0886 84.1576 90.6981 83.5481C91.3076 82.9386 91.65 82.112 91.65 81.25C91.65 80.388 91.3076 79.5614 90.6981 78.9519C90.0886 78.3424 89.262 78 88.4 78H83.2195ZM13 65C13 51.2087 18.4786 37.9823 28.2304 28.2304C37.9823 18.4786 51.2087 13 65 13C78.7913 13 92.0177 18.4786 101.77 28.2304C111.521 37.9823 117 51.2087 117 65C117 78.7913 111.521 92.0177 101.77 101.77C92.0177 111.521 78.7913 117 65 117C51.2087 117 37.9823 111.521 28.2304 101.77C18.4786 92.0177 13 78.7913 13 65ZM65 19.5C59.0249 19.5 53.1082 20.6769 47.5879 22.9635C42.0676 25.2501 37.0517 28.6016 32.8266 32.8266C28.6016 37.0517 25.2501 42.0676 22.9635 47.5879C20.6769 53.1082 19.5 59.0249 19.5 65C19.5 70.9751 20.6769 76.8918 22.9635 82.4121C25.2501 87.9324 28.6016 92.9483 32.8266 97.1734C37.0517 101.398 42.0676 104.75 47.5879 107.037C53.1082 109.323 59.0249 110.5 65 110.5C77.0674 110.5 88.6405 105.706 97.1734 97.1734C105.706 88.6405 110.5 77.0674 110.5 65C110.5 52.9326 105.706 41.3595 97.1734 32.8266C88.6405 24.2937 77.0674 19.5 65 19.5Z" fill="white"/>
</svg>
